<?xml version="1.0" standalone="no"?><!DOCTYPE svg PUBLIC "-//W3C//DTD SVG 1.1//EN" "http://www.w3.org/Graphics/SVG/1.1/DTD/svg11.dtd"><svg t="1483987595203" class="icon" style="" viewBox="0 0 1256 1024" version="1.1" xmlns="http://www.w3.org/2000/svg" p-id="13671" xmlns:xlink="http://www.w3.org/1999/xlink" width="245.3125" height="200"><defs><style type="text/css"></style></defs><path d="M233.64 439.5c-19.92 0-36.06 16.16-36.06 36.08v163.96c0 19.92 16.14 36.08 36.06 36.08h8.02c19.92 0 36.06-16.14 36.06-36.08V475.58c0-19.92-16.14-36.08-36.06-36.08h-8.02z" p-id="13672" fill="#ffffff"></path><path d="M241.66 680.06h-8.02c-22.34 0-40.52-18.18-40.52-40.54V475.58c0-22.34 18.18-40.54 40.52-40.54h8.02c22.34 0 40.52 18.18 40.52 40.54v163.96c0 22.34-18.18 40.52-40.52 40.52z m-8.02-236.1c-17.42 0-31.6 14.18-31.6 31.62v163.96c0 17.44 14.18 31.62 31.6 31.62h8.02c17.42 0 31.6-14.18 31.6-31.62V475.58c0-17.44-14.18-31.62-31.6-31.62h-8.02zM377.2 378.3c-19.92 0-36.08 16.14-36.08 36.06V639.54c0 19.92 16.16 36.08 36.08 36.08h8.02c19.92 0 36.08-16.14 36.08-36.08V414.36c0-19.92-16.14-36.06-36.08-36.06h-8.02z" p-id="13673" fill="#ffffff"></path><path d="M385.2 680.06h-8.02c-22.34 0-40.54-18.18-40.54-40.54V414.36c0-22.34 18.18-40.52 40.54-40.52h8.02c22.34 0 40.54 18.18 40.54 40.52V639.54c0 22.34-18.18 40.52-40.54 40.52z m-8-297.3c-17.44 0-31.62 14.18-31.62 31.6V639.54c0 17.44 14.18 31.62 31.62 31.62h8.02c17.44 0 31.62-14.18 31.62-31.62V414.36c0-17.42-14.18-31.6-31.62-31.6h-8.02zM517.84 315.62c-19.92 0-36.08 16.16-36.08 36.08V639.54c0 19.92 16.14 36.08 36.08 36.08h8.02c19.92 0 36.08-16.14 36.08-36.08V351.7c0-19.92-16.14-36.08-36.08-36.08h-8.02z" p-id="13674" fill="#ffffff"></path><path d="M525.84 680.06H517.82c-22.34 0-40.54-18.18-40.54-40.54V351.7c0-22.34 18.18-40.54 40.54-40.54h8.02c22.34 0 40.54 18.18 40.54 40.54V639.54c0 22.34-18.18 40.52-40.54 40.52z m-8-359.98c-17.44 0-31.62 14.18-31.62 31.62V639.54c0 17.44 14.18 31.62 31.62 31.62h8.02c17.44 0 31.62-14.18 31.62-31.62V351.7c0-17.44-14.18-31.62-31.62-31.62h-8.02z" p-id="13675" fill="#ffffff"></path><path d="M672.04 728.52H135.62c-8.04 0-14.58-6.52-14.58-14.58v-582.96c0-8.04 6.52-14.58 14.58-14.58h937.12c8.04 0 14.58 6.52 14.58 14.58v131.14c43.04 13.02 82.5 34.26 116.6 61.88v-261.24c0-32.2-26.1-58.3-58.3-58.3h-1082.86c-32.2 0-58.3 26.1-58.3 58.3v720.68c0 32.2 26.1 58.3 58.3 58.3h689c-33.7-31.72-60.98-70.18-79.72-113.22z" p-id="13676" fill="#ffffff"></path><path d="M763 846.2h-700.24c-34.6 0-62.76-28.16-62.76-62.76v-720.68c0-34.6 28.16-62.76 62.76-62.76H1145.62c34.6 0 62.76 28.16 62.76 62.76v270.6l-7.26-5.9c-34.3-27.8-73.02-48.34-115.08-61.08l-3.16-0.96v-134.44c0-5.58-4.54-10.12-10.12-10.12H135.62c-5.58 0-10.12 4.54-10.12 10.12v582.96c0 5.58 4.54 10.12 10.12 10.12H674.96l1.16 2.68c18.44 42.36 44.92 79.96 78.68 111.76l8.2 7.7z m-700.24-837.28c-29.68 0-53.84 24.14-53.84 53.84v720.68c0 29.68 24.16 53.84 53.84 53.84h678c-30.2-30.26-54.26-65.28-71.62-104.3H135.62c-10.5 0-19.04-8.54-19.04-19.04v-582.96c0-10.5 8.54-19.04 19.04-19.04h937.12c10.5 0 19.04 8.54 19.04 19.04v127.84c39.02 12.22 75.18 31.02 107.68 55.98v-252.04c0-29.68-24.16-53.84-53.84-53.84h-1082.86z" p-id="13677" fill="#ffffff"></path><path d="M987.34 333.66C843.74 333.66 726.92 450.48 726.92 594.08s116.82 260.42 260.42 260.42S1247.76 737.68 1247.76 594.08 1130.94 333.66 987.34 333.66z m150.98 218.88c-4.28 0-8.54-0.44-12.72-1.3l-62.46 104.34c14.16 10.06 22.8 26.56 22.8 44.08 0 29.78-24.22 54.02-54.02 54.02-29.78 0-54.02-24.22-54.02-54.02 0-8.08 1.82-16.04 5.28-23.3L892.02 608.62c-8.68 3.92-18.46 5.28-27.98 3.8l-24.4 41.06c6.14 7.72 9.48 17.26 9.48 27.2 0 24.16-19.66 43.8-43.82 43.8s-43.82-19.66-43.82-43.8c0-24.16 19.66-43.82 43.82-43.82 2.14 0 4.3 0.16 6.42 0.48l23.74-39.98c-8.62-9.16-13.5-21.38-13.5-34.02 0-27.38 22.26-49.64 49.64-49.64s49.64 22.26 49.64 49.64c0 7.94-1.9 15.72-5.5 22.72l89.6 66.54c7.98-4.52 16.94-6.92 26.16-7l65.18-108.88c-14.22-12.3-21.14-27.72-21.14-46.98 0-34.6 28.16-62.76 62.76-62.76s62.76 28.16 62.76 62.76-28.14 62.8-62.74 62.8z" p-id="13678" fill="#ffffff"></path><path d="M805.32 724.52c24.16 0 43.82-19.66 43.82-43.8 0-9.94-3.34-19.48-9.48-27.2l24.4-41.06c9.52 1.48 19.3 0.1 27.98-3.8L983.22 676.38c-3.46 7.24-5.28 15.22-5.28 23.3 0 29.78 24.24 54.02 54.02 54.02 29.78 0 54.02-24.22 54.02-54.02 0-17.5-8.64-34-22.8-44.08l62.46-104.34c4.18 0.86 8.44 1.3 12.72 1.3 34.6 0 62.76-28.16 62.76-62.76s-28.2-62.78-62.8-62.78-62.76 28.16-62.76 62.76c0 19.26 6.92 34.68 21.14 46.98l-65.18 108.88c-9.22 0.08-18.2 2.48-26.16 7l-89.6-66.54c3.6-7 5.5-14.78 5.5-22.72 0-27.38-22.26-49.64-49.64-49.64s-49.64 22.26-49.64 49.64c0 12.64 4.88 24.84 13.5 34.02l-23.74 39.98c-2.14-0.32-4.28-0.48-6.42-0.48-24.16 0-43.82 19.66-43.82 43.82s19.66 43.8 43.82 43.8z m10.78-77.12l30.62-51.54-2.68-2.44c-8.4-7.7-13.2-18.64-13.2-30.02 0-22.46 18.26-40.72 40.72-40.72s40.72 18.26 40.72 40.72c0 7.64-2.14 15.1-6.18 21.58l-2.18 3.5 100.96 74.98 2.6-1.68c7.28-4.7 15.74-7.2 24.42-7.2 0.64 0 1.28 0.02 1.9 0.04l2.64 0.1L1108.3 534.68l-3.1-2.42c-14.16-11.06-20.76-24.54-20.76-42.46 0-29.68 24.14-53.84 53.84-53.84 29.68 0 53.84 24.16 53.84 53.84s-24.12 53.82-53.8 53.82c-4.64 0-9.26-0.6-13.74-1.78l-3.24-0.86-70.36 117.54 3.86 2.28c13.68 8.08 22.18 22.98 22.18 38.84 0 24.86-20.22 45.1-45.1 45.1-24.86 0-45.1-20.22-45.1-45.1 0-7.84 2.06-15.58 5.96-22.38l1.96-3.44-101.84-75.64-2.48 1.3c-5.86 3.06-12.2 4.62-18.82 4.62-2.96 0-5.94-0.32-8.86-0.98l-3.16-0.7-30.98 52.14 2.26 2.44c6 6.46 9.3 14.88 9.3 23.7 0 19.24-15.66 34.88-34.9 34.88s-34.88-15.66-34.88-34.88c0-19.24 15.66-34.88 34.88-34.88 2.58 0 5.16 0.3 7.68 0.86l3.16 0.72z" p-id="13679" fill="#ffffff"></path><path d="M1177.8 403.62c-50.88-50.88-118.52-78.88-190.46-78.88s-139.58 28.02-190.46 78.88C746.02 454.5 718 522.14 718 594.08s28.02 139.58 78.88 190.46 118.52 78.88 190.46 78.88 139.58-28.02 190.46-78.88 78.88-118.5 78.88-190.46c0-71.94-28.02-139.58-78.88-190.46z m-190.46-69.96c143.6 0 260.42 116.82 260.42 260.42s-116.82 260.42-260.42 260.42S726.92 737.68 726.92 594.08 843.74 333.66 987.34 333.66z m-6.84-4.38c0.52-0.02 1.02-0.02 1.54-0.02-0.5 0-1.02 0.02-1.54 0.02z" p-id="13680" fill="#ffffff"></path><path d="M924.08 901.48h-642.72c-32.2 0-58.3 26.1-58.3 58.3v1.46c0 32.2 26.1 58.3 58.3 58.3h642.72c32.2 0 58.3-26.1 58.3-58.3v-1.46c0-32.2-26.1-58.3-58.3-58.3z" p-id="13681" fill="#ffffff"></path><path d="M924.08 1024h-642.72c-34.6 0-62.76-28.16-62.76-62.76v-1.46c0-34.6 28.16-62.76 62.76-62.76h642.72c34.6 0 62.76 28.16 62.76 62.76v1.46c0 34.62-28.16 62.76-62.76 62.76z m-642.72-118.04c-29.68 0-53.84 24.16-53.84 53.84v1.46c0 29.68 24.14 53.84 53.84 53.84h642.72c29.68 0 53.84-24.16 53.84-53.84v-1.46c0-29.68-24.14-53.84-53.84-53.84h-642.72z" p-id="13682" fill="#ffffff"></path></svg>