<?xml version="1.0" standalone="no"?><!DOCTYPE svg PUBLIC "-//W3C//DTD SVG 1.1//EN" "http://www.w3.org/Graphics/SVG/1.1/DTD/svg11.dtd"><svg t="1483985898732" class="icon" style="" viewBox="0 0 1024 1024" version="1.1" xmlns="http://www.w3.org/2000/svg" p-id="27430" xmlns:xlink="http://www.w3.org/1999/xlink" width="200" height="200"><defs><style type="text/css"></style></defs><path d="M874.016 149.984C774.176 50.08 642.88-0.032 512 0c-130.88-0.032-262.176 50.08-362.048 149.984C48.896 251.008-0.064 384 0 515.744c-0.032 130.016 51.232 259.616 149.952 358.304C249.824 973.92 381.088 1024.064 512 1024l0.192 0c130.816 0 262.016-50.112 361.824-149.952C973.92 774.176 1024.032 642.88 1024 512 1024.032 381.12 973.92 249.824 874.016 149.984zM812.416 812.416c-83.104 83.04-191.552 124.416-300.416 124.448-108.896-0.064-217.344-41.408-300.416-124.448-82.336-82.368-124.416-189.44-124.448-296.672 0.064-110.528 40.672-220.352 124.448-304.16C294.656 128.544 403.104 87.2 512 87.136c108.864 0.064 217.344 41.408 300.416 124.448 83.04 83.04 124.384 191.52 124.448 300.416C936.8 620.864 895.456 729.344 812.416 812.416zM838.688 413.92c-15.68-52.384-44.192-101.76-85.536-143.104-5.92-5.92-15.52-5.92-21.44 0-5.92 5.952-5.92 15.52 0 21.44 37.088 37.088 62.784 81.184 77.184 128.032-19.424 9.888-32.768 30.016-32.768 53.312 0 28.256 19.584 51.84 45.888 58.144-4.608 72.832-34.624 144.256-90.304 199.936-60.736 60.704-140.16 91.008-219.744 91.008-79.584 0-159.008-30.304-219.712-91.008-3.712-3.712-7.328-7.52-10.816-11.392 3.488-6.08 5.504-13.088 5.504-20.576 0-22.88-18.528-41.408-41.408-41.408-2.528 0-4.992 0.256-7.392 0.704-18.912-35.136-30.528-73.12-34.912-111.776 25.824-6.656 44.928-30.016 44.928-57.888 0-24.928-15.232-46.272-36.928-55.296 10.016-38.848 27.616-76.096 52.864-109.44l53.408 53.408C289.792 418.272 275.808 465.152 275.84 512c0 60.384 23.072 120.896 69.184 166.976 21.088 21.088 45.216 37.312 70.976 48.768-0.032 0.736-0.096 1.472-0.096 2.24 0 33.056 26.784 59.84 59.84 59.84 27.072 0 49.92-17.952 57.312-42.624 53.216-4.736 105.216-27.456 145.952-68.192 46.08-46.08 69.184-106.592 69.184-166.976 0.032-60.384-23.104-120.928-69.184-166.976-5.92-5.92-15.52-5.92-21.44 0-5.92 5.92-5.92 15.52 0 21.44 40.224 40.192 60.256 92.8 60.288 145.536-0.032 52.704-20.064 105.312-60.288 145.536-34.624 34.592-78.368 54.24-123.52 59.072-6.08-26.624-29.856-46.496-58.304-46.496-21.504 0-40.32 11.392-50.88 28.416-21.12-9.856-40.928-23.52-58.4-40.992C326.208 617.312 306.176 564.704 306.144 512c0-39.104 11.072-78.144 33.184-112.096l110.08 110.112c0 0.192-0.032 0.384-0.032 0.576 0 33.056 26.784 59.84 59.84 59.84 33.056 0 59.84-26.784 59.84-59.84 0-31.584-24.48-57.376-55.488-59.616L295.136 232.448c-17.024-17.024-44.608-17.024-61.6 0-16.992 17.024-16.992 44.608 0 61.6l8.992 9.024c-29.856 38.432-50.4 81.76-61.536 126.944-29.6 3.616-52.512 28.8-52.512 59.36 0 27.648 18.752 50.848 44.224 57.728 4.512 44.288 17.792 87.84 39.68 127.968-5.152 6.88-8.224 15.424-8.224 24.704 0 22.848 18.528 41.408 41.408 41.408 4.256 0 8.352-0.64 12.224-1.824 4.224 4.704 8.544 9.344 13.056 13.856 66.528 66.56 153.92 99.904 241.152 99.904s174.592-33.344 241.184-99.904c61.696-61.696 94.784-141.28 99.296-222.016 25.056-7.168 43.392-30.144 43.392-57.504C895.84 441.504 870.496 415.36 838.688 413.92z" p-id="27431" fill="#ffffff"></path></svg>