<?xml version="1.0" standalone="no"?><!DOCTYPE svg PUBLIC "-//W3C//DTD SVG 1.1//EN" "http://www.w3.org/Graphics/SVG/1.1/DTD/svg11.dtd"><svg t="1483987398100" class="icon" style="" viewBox="0 0 1024 1024" version="1.1" xmlns="http://www.w3.org/2000/svg" p-id="8459" xmlns:xlink="http://www.w3.org/1999/xlink" width="200" height="200"><defs><style type="text/css"></style></defs><path d="M322.368 161.216c-11.008-7.168-15.68-18.752-12.16-30.08 1.792-6.144 7.04-15.04 15.552-19.392C361.984 92.8 400.576 79.36 440.32 72.128c10.56-2.048 21.376-3.456 32.256-4.8L492.608 64l60.48 0 14.528 1.984C577.472 67.328 587.392 68.736 597.12 70.528c56 9.728 108.672 30.336 156.544 61.184 12.928 8.32 17.344 21.696 11.968 35.84-4.352 11.2-14.464 18.432-25.664 18.432-2.112 0-4.16-0.256-6.272-0.768-5.376-1.216-10.048-4.16-13.44-6.336-56.192-35.072-117.504-54.272-182.272-56.96C473.664 119.104 412.096 132.544 354.24 161.984 342.976 167.744 331.84 167.552 322.368 161.216zM86.912 519.68c2.496 0 4.992-0.384 7.936-1.216 15.616-4.544 18.752-17.6 20.416-29.44 1.856-11.84 3.84-23.744 6.464-35.456C143.872 354.56 192.96 276.096 267.968 220.16 270.272 218.432 273.216 216.32 275.52 213.568 285.056 202.944 286.08 185.216 277.76 173.248 271.296 163.968 263.232 162.56 258.944 162.56c-5.12 0-10.304 1.792-15.36 5.504C160.512 228.352 103.744 312.256 74.816 417.28 72.064 427.136 69.76 437.056 67.456 446.976L60.032 498.496l1.984 3.584C64.512 506.432 71.936 519.68 86.912 519.68zM958.592 488.128l-1.024-4.48c-2.56-41.344-10.112-82.048-22.464-121.152-20.16-64.256-52.16-120.832-95.104-168.064-5.44-6.08-14.016-9.984-23.104-10.24-11.264 0-20.608 8.128-24.512 21.376-4.416 16.384 5.504 27.136 9.6 31.616 36.608 40.832 64.064 89.536 81.536 144.96 12.864 40.704 19.776 83.904 20.544 128.32 0.256 20.928 11.328 28.288 20.544 30.848 2.368 0.64 4.736 0.96 7.04 0.96 7.168 0 17.408-3.136 25.472-18.048l1.536-2.816L958.592 488.128zM857.216 505.472c-1.792-18.304-3.712-37.312-7.168-55.872-30.08-159.744-166.592-280.256-317.568-280.256-36.352 0-72.832 6.784-108.16 20.288C367.744 211.2 319.296 246.4 280.192 294.4 268.928 308.672 269.824 326.848 282.368 338.56c12.032 11.328 27.264 10.176 40.64-4.544L328.32 328.32c10.816-11.712 21.952-23.808 33.664-34.176 47.424-41.536 108.224-64.448 171.328-64.448 47.552 0 93.312 13.248 132.288 38.208 89.344 57.344 134.656 146.304 134.784 264.704 0.256 73.472-12.864 149.184-38.848 224.896-5.056 14.528-10.752 28.672-16.448 42.944l-7.68 19.392c-6.464 16.576-0.128 33.792 15.04 41.024 4.032 1.92 8.064 2.88 12.032 2.88 6.144 0 17.408-2.368 24.448-18.24 41.6-94.528 64.704-195.712 68.672-300.864l3.84-0.448L859.904 531.2C858.88 522.624 858.048 514.048 857.216 505.472zM640 527.04 640 518.656c0-66.432-48.448-115.328-119.04-118.848L515.84 399.616c-61.376 0-114.112 50.88-115.328 111.104-1.28 65.472-22.848 124.928-64.192 176.832-2.944 3.776-6.144 7.296-9.344 10.944-2.88 3.264-5.824 6.592-8.448 9.728-5.632 6.72-8.256 14.848-7.296 22.976 1.024 8.32 5.632 15.936 12.992 21.504 5.568 4.16 11.584 6.336 17.856 6.336 5.824 0 14.72-1.984 25.28-12.864l4.032-4.352c59.2-66.624 90.176-143.936 92.16-229.568 0.384-12.672 4.544-23.232 12.8-32.32C490.816 463.872 519.488 457.472 542.72 465.6c22.528 7.68 35.968 27.328 35.2 51.2-2.304 76.416-22.976 148.16-61.504 213.312-33.344 56.576-78.72 105.472-134.976 145.6-8.384 6.016-13.568 14.4-14.592 23.488-0.96 8.64 1.856 17.152 8.064 24.064 5.888 6.528 12.736 9.792 20.48 9.792 7.36 0 14.464-3.008 23.04-9.344C553.728 824.192 640 692.416 640 531.264L640 527.04zM752.64 497.792l-0.192-1.6c-0.576-4.352-1.024-9.216-1.472-14.464-1.216-12.928-2.56-27.712-6.464-42.496C720.448 346.752 628.48 282.112 521.088 282.112c-11.264 0-22.656 0.768-33.728 2.176C367.616 299.584 300.736 397.44 298.56 481.728 297.408 528.192 282.88 568.832 254.08 606.016c-31.68 41.216-76.544 71.04-133.184 88.64-12.672 3.968-18.56 11.392-21.248 16.896-3.584 7.296-3.776 15.872-0.512 24.384 4.736 11.904 15.552 19.008 28.992 19.008 3.904 0 8-0.576 12.16-1.728 119.168-33.024 210.816-133.056 222.848-243.456 0.576-5.824 1.088-11.712 1.472-17.536 1.152-15.168 2.24-29.568 6.08-43.2C387.968 387.712 453.76 343.232 527.232 343.232c10.816 0 21.696 0.96 32.32 2.88C623.872 357.568 676.736 409.6 682.56 467.2c1.856 19.136 0.576 38.528-0.896 59.072-0.576 8.64-1.216 17.28-1.536 25.92-0.064 2.432-0.576 4.864-1.024 7.296-0.64 3.712-1.28 7.424-1.344 10.944-0.32 7.872 2.496 15.552 7.936 21.568 6.4 6.912 15.808 11.2 27.648 11.712 16.896 0 27.84-10.176 29.952-27.904L752.64 497.792zM551.104 530.112l0.128-3.648c0.128-3.52 0.192-6.784 0.128-9.6 0-15.68-10.176-27.2-26.176-29.312L520.96 487.296c-16.256 0-27.84 11.392-30.208 29.888L488.64 535.296C486.4 555.328 484.032 576 479.168 595.2c-27.072 105.664-90.24 187.968-187.776 244.544-17.344 9.984-22.656 26.24-13.888 42.432 5.504 10.112 14.4 15.68 24.96 15.68 5.952 0 12.224-1.792 18.688-5.44 37.184-20.864 70.784-46.4 99.904-75.904C498.24 738.176 542.016 642.048 551.104 530.112zM99.648 640l-3.84-0.064c-17.344-2.944-28.8-17.408-27.776-33.984 0.768-15.936 12.096-25.984 29.696-25.984C128.64 579.712 150.272 560.832 155.52 529.472c9.344-54.912 31.872-106.944 66.944-154.496 8.832-11.904 18.368-14.4 24.832-14.4 5.696 0 11.328 1.856 16.704 5.568 7.424 5.184 12.16 12.416 13.568 20.48 1.344 8-0.704 16.32-5.824 23.488C252.224 436.672 239.36 460.032 231.168 483.968 223.04 507.52 217.792 526.72 214.528 544.64 204.288 599.936 156.48 640 100.736 640L99.648 640zM99.648 627.456 99.648 627.456 99.648 627.456 99.648 627.456zM712.384 654.656c-17.28-9.92-38.336-1.728-45.504 17.344l-3.968 11.008c-5.12 14.464-10.304 28.928-16.32 43.008-26.624 62.272-65.6 119.936-115.904 171.456-13.184 13.376-10.112 26.688-7.104 33.472 5.504 12.16 15.872 18.56 30.912 18.944l8.576-2.752c3.008-1.664 7.616-4.224 11.328-8.128 29.376-29.12 56.384-62.72 80.192-99.904 30.208-46.848 53.824-96.96 70.144-148.8C731.328 668.992 719.808 658.816 712.384 654.656zM305.728 803.712c-15.872 9.792-32.256 18.944-48.576 28.032L236.16 843.584l-8 0.832c-14.912 0-28.224-10.304-31.68-24.512-4.8-20.352 11.456-29.312 16.832-32.256 19.392-10.624 38.656-21.568 57.6-32.832 6.528-3.904 12.48-5.824 18.304-5.824 5.504 0 13.632 1.792 20.8 10.432 6.016 7.232 8.768 17.088 7.296 26.24C316.096 793.408 312 799.808 305.728 803.712zM228.16 831.552 228.16 831.552 228.16 831.552 228.16 831.552z" p-id="8460" fill="#ffffff"></path></svg>