<?xml version="1.0" standalone="no"?><!DOCTYPE svg PUBLIC "-//W3C//DTD SVG 1.1//EN" "http://www.w3.org/Graphics/SVG/1.1/DTD/svg11.dtd"><svg t="1487944416315" class="icon" style="" viewBox="0 0 1024 1024" version="1.1" xmlns="http://www.w3.org/2000/svg" p-id="2062" xmlns:xlink="http://www.w3.org/1999/xlink" width="200" height="200"><defs><style type="text/css"></style></defs><path d="M762.456841 508.137992C759.886703 526.751626 772.840199 542.88387 772.840199 542.88387 786.515903 554.185555 795.226101 571.265168 795.226101 590.380728 795.226101 624.411586 767.611253 651.998275 733.542789 651.998275 699.47561 651.998275 671.859478 624.411586 671.859478 590.380728 671.859478 571.266452 680.57096 554.185555 694.246664 542.88387 694.246664 542.88387 709.126478 527.393475 705.271271 508.137992 701.416064 488.882509 685.995237 485.031412 685.995237 485.031412L539.475526 485.031412 539.475526 404.970963C554.973458 412.673157 572.43626 417.017194 590.921978 417.017194 654.797617 417.017194 706.578186 365.291831 706.578186 301.484294 706.578186 237.676757 654.797617 185.951394 590.921978 185.951394 572.43626 185.951394 554.972173 190.299282 539.475526 198.001476L539.475526 105.08735C539.475526 82.40054 521.060487 64 498.344323 64L105.131203 64C82.420179 64 64 82.395405 64 105.08735L64 526.118762 64 538.968588 64 918.913933C64 941.59946 82.415039 960 105.131203 960L526.656963 960 539.475526 960 919.868797 960C942.579821 960 961 941.604595 961 918.91265L961 485.031412 782.375411 485.031412C782.375411 485.031412 765.026979 489.524358 762.456841 508.137992L762.456841 508.137992ZM485.502628 117.915353 485.502628 248.762781C485.494918 248.778185 489.357835 263.615177 510.561473 266.824424 531.765112 270.033671 543.37314 257.093987 543.37314 257.093987 554.688172 243.434147 571.786015 234.731952 590.920692 234.731952 624.986586 234.731952 657.74428 257.093987 657.74428 301.484294 657.74428 345.874602 624.986586 368.236636 590.920692 368.236636 571.78473 368.236636 554.686887 359.534441 543.37314 345.874602 543.37314 345.874602 528.552439 334.860465 510.561473 338.069712 492.570508 341.27896 486.050068 355.399647 486.050068 355.399647L485.502628 485.031412 405.334884 485.031412C413.045298 469.54872 417.393972 452.105819 417.393972 433.639811 417.393972 369.832274 365.613402 318.106911 301.737763 318.106911 237.862124 318.106911 186.081554 369.832274 186.081554 433.639811 186.081554 452.105819 190.434083 469.550003 198.144496 485.031412L117.972898 485.031412 117.972898 117.915353 485.502628 117.915353 485.502628 117.915353ZM485.502628 906.084647 117.972898 906.084647 117.972898 538.968588 223.348555 538.968588 223.348555 538.946765 248.959979 538.946765C248.9754 538.954467 263.828228 535.095669 267.0409 513.914637 270.253573 492.733605 257.300077 481.137953 257.300077 481.137953 243.625658 469.834985 234.914175 452.754087 234.914175 433.641094 234.914175 399.611521 257.300077 366.888752 301.737763 366.888752 346.175448 366.888752 368.56135 399.611521 368.56135 433.641094 368.56135 452.755371 359.849868 469.836268 346.175448 481.137953 346.175448 481.137953 335.149557 495.942852 338.362229 513.914637 341.574901 531.886421 355.71066 538.399909 355.71066 538.399909L387.837385 538.534698 387.837385 538.967304 485.502628 538.967304 485.502628 634.457813C469.994416 626.740216 452.516192 622.387193 434.013769 622.387193 370.13813 622.387193 323.497836 668.97776 323.497836 732.785297 323.497836 796.592834 370.139415 843.183401 434.013769 843.183401 452.514907 843.183401 469.995701 838.831662 485.502628 831.116632L485.502628 906.084647 485.502628 906.084647ZM831.979074 538.946765 907.025817 538.946765 907.025817 906.084647 539.496087 906.084647 539.496087 805.956134 539.475526 805.956134 539.475526 781.565855C539.475526 781.565855 534.977784 764.23592 516.344284 761.668522 497.710784 759.101124 481.561322 772.040809 481.561322 772.040809 470.247574 785.700649 453.149731 794.402844 434.013769 794.402844 399.94659 794.402844 372.330458 766.816155 372.330458 732.785297 372.330458 698.75444 399.94659 671.167751 434.013769 671.167751 453.147161 671.167751 470.247574 679.869945 481.561322 693.529785 481.561322 693.529785 497.068249 708.395018 516.344284 704.543922 535.620319 700.692825 539.475526 685.288438 539.475526 685.288438L539.475526 544.001971 539.497372 538.946765 635.11036 538.946765C627.38581 554.438443 623.026856 571.898032 623.026856 590.380728 623.026856 654.188265 669.66715 700.778833 733.542789 700.778833 797.418428 700.778833 844.058722 654.185698 844.058722 590.380728 844.058722 571.899316 839.702338 554.43716 831.979074 538.946765L831.979074 538.946765Z" p-id="2063" fill="#ffffff"></path></svg>