<?xml version="1.0" standalone="no"?><!DOCTYPE svg PUBLIC "-//W3C//DTD SVG 1.1//EN" "http://www.w3.org/Graphics/SVG/1.1/DTD/svg11.dtd"><svg t="1483982706071" class="icon" style="" viewBox="0 0 1838 1024" version="1.1" xmlns="http://www.w3.org/2000/svg" p-id="2432" xmlns:xlink="http://www.w3.org/1999/xlink" width="358.984375" height="200"><defs><style type="text/css"></style></defs><path d="M938.869945 438.922045c116.684358-12.797639 207.397036-107.274329 205.51503-222.076681-2.296047-121.201172-107.65073-219.065472-234.87432-216.807065-127.599991 1.882006-229.604704 102.381114-227.346297 224.335088 1.882006 114.425951 95.605893 206.267833 213.043054 215.30146-224.335088 14.303244-400.490829 194.222996-396.726817 411.030061 2.296047 124.212381 216.807065 176.15574 428.344514 173.144531 211.91385-3.764012 424.580502-62.106191 422.736137-186.318572C1345.721953 620.723803 1163.581435 446.450068 938.869945 438.922045z" p-id="2433"></path><path d="M1528.690555 374.557448c88.07787-7.904424 157.335683-79.044242 155.830078-164.863706-1.882006-90.336277-79.759405-162.605299-174.650136-161.099694-94.47669 1.505605-169.756921 76.033033-168.251316 166.36931 1.467965 86.195864 72.984184 155.453677 162.228898 159.970491-107.274329 5.646017-202.880222 60.976987-257.081989 150.936863-3.38761 6.022418-1.882006 13.17404 3.425251 17.314453 76.371794 60.976987 123.421939 150.184061 129.481997 244.284349 0.376401 6.775221 5.269616 12.044837 12.007197 13.17404 40.688965 6.022418 85.819463 8.657227 131.740404 7.904424 80.587487-1.129203 155.867718-13.17404 211.537449-33.876104 85.104301-31.241296 102.418754-73.774626 102.042353-103.886719C1834.328292 508.93266 1696.904231 378.69786 1528.690555 374.557448z" p-id="2434"></path><path d="M582.380412 550.713188c4.930855-4.516814 6.43646-12.044837 2.634808-17.690854-57.175335-88.07787-154.700875-140.397631-261.975204-142.656038 88.830672-7.528023 158.088485-79.044242 156.58288-165.240107-1.505605-89.959876-79.383004-162.228898-174.273735-160.723293-94.47669 1.505605-170.170962 76.033033-168.627717 166.36931 1.467965 85.819463 72.645423 154.700875 161.438455 159.970491-168.251316 9.033628-301.120924 143.40884-298.109714 305.637738 0.752802 30.112092 19.234099 71.892621 105.429963 100.875509 56.836574 18.820058 132.116805 28.606488 213.043054 27.100883 45.130498-0.376401 90.675038-4.893215 130.987602-12.421238 6.775221-1.129203 11.668436-6.775221 11.668436-13.17404C464.190449 704.284859 508.229384 613.948582 582.380412 550.713188z" p-id="2435"></path></svg>